<?xml version="1.0" encoding="UTF-8" standalone="no"?>
<!-- Created with Inkscape (http://www.inkscape.org/) -->

<svg
   width="722.8457"
   height="701.96637"
   id="svg2"
   version="1.1"
   inkscape:version="1.2.2 (b0a8486541, 2022-12-01)"
   sodipodi:docname="bleh.svg"
   inkscape:export-filename="/home/thockin/src/kubernetes/new.png"
   inkscape:export-xdpi="460.95001"
   inkscape:export-ydpi="460.95001"
   xmlns:inkscape="http://www.inkscape.org/namespaces/inkscape"
   xmlns:sodipodi="http://sodipodi.sourceforge.net/DTD/sodipodi-0.dtd"
   xmlns="http://www.w3.org/2000/svg"
   xmlns:svg="http://www.w3.org/2000/svg"
   xmlns:rdf="http://www.w3.org/1999/02/22-rdf-syntax-ns#"
   xmlns:cc="http://creativecommons.org/ns#"
   xmlns:dc="http://purl.org/dc/elements/1.1/">
  <defs
     id="defs4" />
  <sodipodi:namedview
     id="base"
     pagecolor="#ffffff"
     bordercolor="#666666"
     borderopacity="1.0"
     inkscape:pageopacity="0.0"
     inkscape:pageshadow="2"
     inkscape:zoom="0.38693801"
     inkscape:cx="-121.46649"
     inkscape:cy="625.42319"
     inkscape:document-units="px"
     inkscape:current-layer="g3052"
     showgrid="false"
     inkscape:window-width="1880"
     inkscape:window-height="971"
     inkscape:window-x="26"
     inkscape:window-y="23"
     inkscape:window-maximized="0"
     inkscape:snap-global="false"
     fit-margin-top="10"
     fit-margin-left="10"
     fit-margin-right="10"
     fit-margin-bottom="10"
     inkscape:showpageshadow="2"
     inkscape:pagecheckerboard="0"
     inkscape:deskcolor="#d1d1d1" />
  <metadata
     id="metadata7">
    <rdf:RDF>
      <cc:Work
         rdf:about="">
        <dc:format>image/svg+xml</dc:format>
        <dc:type
           rdf:resource="http://purl.org/dc/dcmitype/StillImage" />
      </cc:Work>
    </rdf:RDF>
  </metadata>
  <g
     inkscape:label="Layer 1"
     inkscape:groupmode="layer"
     id="layer1"
     transform="translate(-6.3260942,-174.7524)">
    <g
       id="g3052">
      <path
         style="fill:#326ce5;fill-opacity:1;stroke:#ffffff;stroke-width:0;stroke-miterlimit:4;stroke-dasharray:none;stroke-opacity:1"
         d="m 105.05118,174.7694 a 13.217963,13.109793 0 0 0 -5.065508,1.28186 l -69.122591,33.02748 a 13.217963,13.109793 0 0 0 -7.151836,8.89339 l -17.05301,74.18809 a 13.217963,13.109793 0 0 0 1.794591,10.05147 13.217963,13.109793 0 0 0 0.751426,1.04316 l 47.843905,59.48662 a 13.217963,13.109793 0 0 0 10.334345,4.93291 l 76.725278,-0.0177 a 13.217963,13.109793 0 0 0 10.33437,-4.92407 l 47.82621,-59.49547 a 13.217963,13.109793 0 0 0 2.55485,-11.09463 l -17.07952,-74.18804 a 13.217963,13.109793 0 0 0 -7.15183,-8.89338 l -69.13143,-33.00983 a 13.217963,13.109793 0 0 0 -6.40925,-1.28186 z"
         id="path3055"
         inkscape:connector-curvature="0"
         inkscape:export-filename="new.png"
         inkscape:export-xdpi="250.55"
         inkscape:export-ydpi="250.55" />
      <path
         inkscape:connector-curvature="0"
         id="path3059"
         d="m 105.73593,197.05248 c -2.38003,2.4e-4 -4.30981,2.14397 -4.30953,4.78836 1e-5,0.0406 0.008,0.0794 0.009,0.1197 -0.003,0.35931 -0.0208,0.79218 -0.009,1.10501 0.0568,1.5252 0.38923,2.69253 0.58934,4.09774 0.36252,3.00757 0.66629,5.50067 0.47883,7.81791 -0.1823,0.87381 -0.82592,1.67294 -1.39967,2.22842 l -0.10129,1.82326 c -2.586248,0.21428 -5.189808,0.60665 -7.790288,1.1971 -11.18992,2.54068 -20.82424,8.30465 -28.159243,16.08704 -0.475957,-0.32471 -1.308625,-0.92206 -1.556224,-1.10501 -0.769435,0.1039 -1.547078,0.34131 -2.55993,-0.24862 -1.92859,-1.2982 -3.685088,-3.09016 -5.810498,-5.24878 -0.973874,-1.03257 -1.679113,-2.01582 -2.836177,-3.01113 -0.262764,-0.22604 -0.663761,-0.53175 -0.95768,-0.76431 -0.90459,-0.72122 -1.971529,-1.09734 -3.001923,-1.13263 -1.324803,-0.0454 -2.600142,0.47261 -3.434737,1.51939 -1.483714,1.86094 -1.00868,4.70527 1.058968,6.35378 0.02099,0.0167 0.04328,0.0297 0.06443,0.0461 0.284119,0.23031 0.632051,0.52542 0.893214,0.71824 1.227851,0.90657 2.349448,1.37064 3.572856,2.09031 2.577464,1.59174 4.714208,2.91158 6.409033,4.5029 0.661834,0.70549 0.777504,1.94862 0.865596,2.48626 l 1.381241,1.23392 c -7.394226,11.12776 -10.816338,24.87279 -8.793981,38.8778 l -1.804843,0.52487 c -0.475688,0.61427 -1.147861,1.58083 -1.850911,1.86931 -2.217413,0.69842 -4.712983,0.9549 -7.725821,1.27076 -1.414499,0.11761 -2.634979,0.0475 -4.134561,0.33149 -0.330059,0.0625 -0.789928,0.18233 -1.151054,0.26705 -0.01259,0.002 -0.02427,0.007 -0.03681,0.009 -0.01966,0.005 -0.04552,0.0142 -0.06445,0.0184 -2.540081,0.61373 -4.171839,2.94845 -3.646526,5.24878 0.52544,2.30087 3.006543,3.70007 5.561864,3.14926 0.01851,-0.004 0.04518,-0.005 0.06445,-0.009 0.02883,-0.007 0.05418,-0.0206 0.08288,-0.0276 0.356202,-0.0781 0.80261,-0.16519 1.114209,-0.24862 1.474326,-0.39475 2.542086,-0.97474 3.867521,-1.48255 2.851489,-1.02273 5.213187,-1.8771 7.514044,-2.21001 0.960972,-0.0753 1.973424,0.59291 2.477057,0.87479 l 1.878514,-0.32229 c 4.32283,13.40235 13.382107,24.235 24.853427,31.03225 l -0.782722,1.87851 c 0.282126,0.72943 0.593293,1.71635 0.383137,2.43671 -0.836473,2.1691 -2.269237,4.45861 -3.900739,7.01109 -0.789966,1.17924 -1.598429,2.09439 -2.311303,3.44394 -0.170581,0.32292 -0.387833,0.81898 -0.552501,1.16025 -1.107617,2.36983 -0.295144,5.09931 1.832462,6.12358 2.140999,1.03072 4.798527,-0.0564 5.948621,-2.43102 0.002,-0.003 0.007,-0.007 0.009,-0.009 8.1e-4,-0.002 -8.2e-4,-0.007 0,-0.009 0.16382,-0.33667 0.39589,-0.77921 0.53408,-1.0958 0.61059,-1.3988 0.81376,-2.59752 1.24313,-3.9504 1.14026,-2.86422 1.76674,-5.8695 3.33641,-7.74214 0.42982,-0.51279 1.13058,-0.71001 1.85713,-0.90453 l 0.97608,-1.76801 c 10.00052,3.83859 21.194498,4.86864 32.376668,2.32972 2.55094,-0.57919 5.01362,-1.32879 7.39433,-2.22843 0.27434,0.4866 0.78416,1.42199 0.92084,1.65751 0.73832,0.24022 1.5442,0.36426 2.20081,1.33522 1.17436,2.00639 1.97749,4.37999 2.95588,7.247 0.42945,1.35285 0.64168,2.55163 1.25235,3.9504 0.13919,0.31881 0.3701,0.76757 0.53409,1.10499 1.14768,2.38235 3.81363,3.47317 5.95782,2.44023 2.12735,-1.02483 2.94071,-3.75405 1.83246,-6.12358 -0.16468,-0.34127 -0.3911,-0.83734 -0.56171,-1.16025 -0.71293,-1.34951 -1.52128,-2.25554 -2.3113,-3.43473 -1.63163,-2.55239 -2.98489,-4.67276 -3.82148,-6.84183 -0.3498,-1.11872 0.059,-1.81449 0.3315,-2.54151 -0.16318,-0.18705 -0.51237,-1.24352 -0.71825,-1.74039 11.92152,-7.03908 20.71476,-18.2757 24.84422,-31.25325 0.55762,0.0876 1.52683,0.25912 1.84167,0.3223 0.64814,-0.42748 1.24408,-0.98524 2.4126,-0.89321 2.30086,0.33278 4.6625,1.18742 7.51404,2.21 1.32546,0.50774 2.39318,1.09709 3.86753,1.49176 0.3116,0.0834 0.75799,0.16124 1.1142,0.23942 0.0287,0.007 0.054,0.0211 0.0829,0.0276 0.0193,0.004 0.046,0.005 0.0644,0.009 2.55547,0.55012 5.03701,-0.84828 5.56186,-3.14927 0.52473,-2.30047 -1.10627,-4.63572 -3.64653,-5.24878 -0.36949,-0.084 -0.89349,-0.22672 -1.25233,-0.29467 -1.49961,-0.284 -2.72006,-0.21395 -4.13456,-0.3315 -3.01286,-0.31571 -5.50838,-0.57245 -7.72583,-1.27077 -0.90413,-0.35073 -1.54732,-1.42655 -1.86012,-1.8693 l -1.74038,-0.50645 c 0.90236,-6.5282 0.65904,-13.32234 -0.90242,-20.12032 -1.576,-6.86126 -4.3612,-13.13655 -8.07575,-18.66538 0.44643,-0.40585 1.28952,-1.15243 1.52859,-1.37206 0.0699,-0.77326 0.01,-1.584 0.81034,-2.44022 1.69474,-1.59142 3.83166,-2.91102 6.40903,-4.5029 1.22336,-0.71973 2.35426,-1.18367 3.58206,-2.0903 0.27765,-0.20502 0.6568,-0.52969 0.94846,-0.7643 2.06722,-1.64906 2.54317,-4.49322 1.05897,-6.35379 -1.4842,-1.86055 -4.36024,-2.0358 -6.42745,-0.38674 -0.29424,0.23303 -0.69351,0.53704 -0.95767,0.76429 -1.15702,0.99538 -1.87157,1.97852 -2.8454,3.01114 -2.12529,2.15873 -3.88197,3.95968 -5.81048,5.25799 -0.83568,0.48651 -2.05972,0.31817 -2.6152,0.28546 l -1.63909,1.16946 c -9.34652,-9.80084 -22.07202,-16.06692 -35.77451,-17.28414 -0.0384,-0.57423 -0.0885,-1.61219 -0.10128,-1.92456 -0.56097,-0.53678 -1.23863,-0.99505 -1.40889,-2.15476 -0.18746,-2.31724 0.12552,-4.81034 0.48804,-7.81791 0.20011,-1.40521 0.53258,-2.57254 0.58934,-4.09773 0.0129,-0.34673 -0.008,-0.84984 -0.009,-1.22472 -2.9e-4,-2.64438 -1.9295,-4.7886 -4.30953,-4.78836 z m -5.39613,33.42642 -1.279958,22.60658 -0.0921,0.0461 c -0.0858,2.02241 -1.75032,3.63731 -3.79385,3.63731 -0.8371,0 -1.60976,-0.26882 -2.23764,-0.72746 l -0.0368,0.0184 -18.536467,-13.14037 c 5.697007,-5.60198 12.983947,-9.74184 21.381857,-11.6486 1.53405,-0.3483 3.0674,-0.60675 4.594988,-0.79192 z m 10.80145,0 c 9.80463,1.20588 18.87203,5.64551 25.82031,12.44974 l -18.41678,13.05749 -0.0644,-0.0276 c -1.63466,1.1939 -3.93778,0.89767 -5.21195,-0.69984 -0.52195,-0.65445 -0.79581,-1.42395 -0.82875,-2.2008 l -0.0184,-0.009 z m -43.500402,20.88462 16.925014,15.13859 -0.0184,0.0921 c 1.52768,1.32805 1.75296,3.63265 0.47884,5.23036 -0.52192,0.65447 -1.22054,1.09344 -1.9706,1.29838 l -0.0184,0.0737 -21.694955,6.26169 c -1.104195,-10.09685 1.275485,-19.9118 6.298541,-28.09477 z m 76.070442,0.009 c 2.51473,4.07601 4.41901,8.62852 5.55265,13.56395 1.12007,4.87624 1.40116,9.74378 0.93926,14.44796 l -21.80544,-6.28013 -0.0184,-0.0921 c -1.95261,-0.53366 -3.15264,-2.51989 -2.69805,-4.51211 0.18624,-0.81611 0.61945,-1.50653 1.2063,-2.01664 l -0.009,-0.0461 16.83291,-15.06491 z m -41.44693,16.29882 h 6.93391 l 4.30952,5.38691 -1.547,6.72212 -6.22486,2.99272 -6.243288,-3.00193 -1.547,-6.72212 z m 22.22904,18.43519 c 0.29466,-0.0149 0.58804,0.0116 0.8748,0.0644 l 0.0368,-0.0461 22.44083,3.79385 c -3.28422,9.22699 -9.5687,17.22046 -17.96555,22.56976 l -8.71113,-21.04115 0.0276,-0.0368 c -0.8002,-1.85935 4.2e-4,-4.03976 1.84168,-4.92647 0.47137,-0.22703 0.96382,-0.35274 1.45492,-0.37756 z m -37.689908,0.0921 c 1.71254,0.024 3.2486,1.21263 3.64652,2.9559 0.18629,0.81611 0.0956,1.62473 -0.21179,2.33893 l 0.0644,0.0829 -8.61905,20.82937 C 73.625266,307.23488 67.206768,299.49233 63.773297,289.9927 l 22.247455,-3.77544 0.0368,0.0461 c 0.24885,-0.0458 0.50123,-0.0679 0.74588,-0.0644 z m 18.794308,9.12553 c 0.59654,-0.0219 1.20184,0.10048 1.77722,0.37754 0.7542,0.3632 1.33684,0.93504 1.70355,1.62068 h 0.0829 l 10.96718,19.81644 c -1.42333,0.47714 -2.88659,0.88492 -4.38318,1.22471 -8.38761,1.90442 -16.748538,1.32739 -24.319348,-1.25234 l 10.939568,-19.7796 h 0.0184 c 0.65642,-1.22711 1.90134,-1.95922 3.21373,-2.00743 z"
         style="color:#000000;font-style:normal;font-variant:normal;font-weight:normal;font-stretch:normal;font-size:medium;line-height:normal;font-family:Sans;-inkscape-font-specification:Sans;text-indent:0;text-align:start;text-decoration:none;text-decoration-line:none;letter-spacing:normal;word-spacing:normal;text-transform:none;writing-mode:lr-tb;direction:ltr;baseline-shift:baseline;text-anchor:start;display:inline;overflow:visible;visibility:visible;fill:#ffffff;fill-opacity:1;stroke:#ffffff;stroke-width:0.073667;stroke-miterlimit:4;stroke-dasharray:none;stroke-opacity:1;marker:none;enable-background:accumulate"
         sodipodi:nodetypes="ccccccccsccccscssccsccccccccscccsccccccccccccccscccscsccsccccscscsccccccccscccscsccccsccccscscscccccccccccccccscccsccccccccccccscccccscccccccccccccccccccccccscccscccccccccscccscccc"
         inkscape:export-filename="./path3059.png"
         inkscape:export-xdpi="250.55"
         inkscape:export-ydpi="250.55" />
    </g>
  </g>
</svg>